<mxfile host="app.diagrams.net" modified="2024-01-28T14:23:29.763Z" agent="Mozilla/5.0 (Windows NT 10.0; Win64; x64; rv:123.0) Gecko/20100101 Firefox/123.0" version="23.0.2" etag="DgFF3RgcN1k_15A_UiuX" type="github">
  <diagram name="Page-1" id="cz6WCXl3cMV2WezYyClN">
    <mxGraphModel>
      <root>
        <mxCell id="0" />
        <mxCell id="1" parent="0" />
      </root>
    </mxGraphModel>
  </diagram>
</mxfile>
